<svg width="330" height="302" viewBox="0 0 330 302" fill="none" xmlns="http://www.w3.org/2000/svg">
<g clip-path="url(#clip0_1_605)">
<path d="M211.423 241.178L214.595 248.285C212.017 247.875 209.62 250.076 209.566 252.901C209.512 255.727 211.811 258.667 214.389 259.069C213.896 261.263 211.77 262.23 209.925 263.117C208.08 264.004 206.091 265.475 206.228 267.812C206.338 269.689 207.891 271.347 209.54 272.013C211.189 272.679 212.92 272.577 214.59 272.465C212.059 275.111 211.812 280.085 214.035 283.654C216.258 287.223 220.696 288.979 224.02 287.606C221.672 290.526 222.182 295.873 225.096 298.887C228.034 301.925 232.292 302.219 236.015 301.899C245.494 301.098 254.526 297.52 261.981 291.613C264.826 289.353 267.484 286.694 269.108 283.227C270.731 279.76 271.209 275.37 269.697 271.424C270.105 276.367 275.054 280.271 279.507 280.489C283.96 280.708 287.847 278.201 291.151 275.342C295.544 271.541 299.612 266.212 299.009 259.637C298.71 256.382 297.288 253.251 295.893 250.219L293.188 244.34C292.096 241.967 290.98 239.554 289.337 237.562C287.693 235.57 285.412 234.029 283.13 234.043C283.652 231.66 284.176 229.188 283.738 226.656C283.301 224.123 281.626 221.502 279.349 220.909C276.45 220.154 273.993 222.828 271.079 222.576C268.273 222.333 265.955 219.519 263.231 218.404C262.11 217.919 260.871 217.772 259.667 217.98C258.463 218.188 257.346 218.743 256.453 219.576C254.726 221.261 254.006 224.108 254.626 226.802C255.169 229.161 256.613 231.242 257.49 233.518C258.367 235.794 258.503 238.72 256.819 239.963C254.787 241.463 251.694 239.422 250.106 236.953C248.519 234.484 247.607 231.494 245.6 229.418C243.231 226.967 239.522 226.393 237.082 228.099C234.643 229.805 233.71 233.625 234.94 236.873C235.945 239.528 238.249 242.214 237.45 244.715C236.605 247.358 232.911 247.023 230.682 245.155C228.453 243.288 226.974 240.474 224.772 238.565C222.536 236.625 219.617 235.776 217.053 236.318C215.753 236.62 214.55 237.244 213.555 238.133C212.559 239.022 211.804 240.147 211.359 241.405" fill="#E6E6E6"/>
<path d="M262.765 221.205L256.185 224.261C255.196 224.749 254.074 224.9 252.991 224.691C252.036 224.465 251.391 223.882 251.221 223.089L249.69 215.941C249.401 214.593 250.518 212.998 252.346 212.149L255.98 210.461C257.808 209.612 259.748 209.788 260.593 210.878L265.07 216.657C265.567 217.298 265.597 218.168 265.153 219.043C264.615 220.005 263.776 220.765 262.765 221.205Z" fill="#3F3D56"/>
<path d="M58.7431 89.1014C64.9288 72.1787 74.5819 56.7337 87.0843 43.7554C97.6914 32.7488 114.2 33.2062 114.2 33.2062L114.294 33.0892C118.267 28.1918 123.599 24.5762 129.62 22.6961C135.641 20.816 142.084 20.755 148.139 22.5209C149.713 22.9724 150.924 23.1725 151.5 22.9714C161.997 19.299 161.504 11.0099 170.561 4.33226C186.42 -7.35988 239.021 6.03323 246.439 27.5482C252.45 44.9855 279.284 53.4373 289.31 66.7755C290.878 68.861 292.416 70.9708 293.924 73.1047C294.631 74.0961 295.331 75.095 296.022 76.1013C303.125 86.383 309.497 97.1505 315.092 108.324C318.76 115.625 321.948 123.156 324.636 130.872C335.092 161.423 331.516 184.185 302.688 178.562C299.275 177.894 295.944 177.297 292.696 176.77C287.991 176.003 283.451 175.372 279.075 174.879C273.182 174.209 267.576 173.77 262.256 173.562C260.467 173.49 258.711 173.442 256.988 173.417C231.511 173.064 212.613 177.857 198.216 185.297C195.775 186.555 193.463 187.886 191.278 189.29C187.94 191.423 184.754 193.782 181.741 196.352C177.571 199.929 173.726 203.867 170.25 208.121L170.059 208.354C153.22 228.943 147.678 251.736 135.965 255.749C85.893 272.907 54.2247 210.709 50.977 149.865C50.813 146.799 50.7225 143.742 50.7053 140.694C50.6951 139.331 50.7018 137.972 50.7254 136.617C50.7768 133.081 50.9327 129.568 51.1939 126.097C51.2914 124.77 51.4045 123.45 51.5332 122.137C51.6751 120.722 51.8294 119.314 52.0078 117.916C53.2815 107.664 55.5099 97.9103 58.7431 89.1014Z" fill="#F5F5F5"/>
<path d="M213.941 122.577C209.942 124.438 209.876 132.773 211.13 135.474L213.402 140.363L227.887 133.636L225.614 128.747C224.358 126.048 217.942 120.722 213.941 122.577Z" fill="#3F3D56"/>
<path d="M175.017 192.764C174.762 192.764 174.511 192.702 174.285 192.584C174.059 192.467 173.865 192.296 173.719 192.087C173.573 191.879 173.479 191.638 173.446 191.385C173.413 191.133 173.441 190.876 173.529 190.636C173.6 190.441 173.709 190.261 173.849 190.108C173.99 189.955 174.16 189.831 174.349 189.744L249.151 155.006C249.34 154.918 249.544 154.868 249.751 154.859C249.959 154.851 250.167 154.883 250.362 154.954C250.557 155.025 250.737 155.135 250.89 155.275C251.043 155.416 251.167 155.585 251.254 155.774C251.431 156.155 251.449 156.59 251.305 156.984C251.161 157.378 250.866 157.699 250.486 157.876L175.683 192.615C175.475 192.713 175.247 192.763 175.017 192.764Z" fill="#3F3D56"/>
<path d="M233.529 136.753L212.147 146.683L245.688 218.843L267.07 208.913L233.529 136.753Z" fill="#E6E6E6"/>
<path d="M153.263 45.9164C149.264 47.7774 149.199 56.1128 150.452 58.8136L152.725 63.7022L167.209 56.9754L164.937 52.0868C163.681 49.3871 157.265 44.0618 153.263 45.9164Z" fill="#3F3D56"/>
<path d="M242.861 229.501L236.282 232.556C235.293 233.044 234.171 233.196 233.088 232.987C232.133 232.761 231.487 232.177 231.318 231.384L229.787 224.237C229.497 222.889 230.615 221.293 232.443 220.444L236.076 218.757C237.905 217.908 239.845 218.083 240.689 219.174L245.167 224.953C245.663 225.593 245.694 226.463 245.25 227.338C244.711 228.301 243.872 229.06 242.861 229.501Z" fill="#3F3D56"/>
<path d="M222.632 239.533L216.052 242.588C215.063 243.077 213.941 243.228 212.858 243.019C211.903 242.793 211.258 242.209 211.088 241.417L209.557 234.269C209.268 232.921 210.385 231.325 212.213 230.476L215.847 228.789C217.675 227.94 219.615 228.115 220.46 229.206L224.937 234.985C225.434 235.626 225.464 236.495 225.021 237.37C224.482 238.333 223.643 239.092 222.632 239.533Z" fill="#3F3D56"/>
<path d="M178.557 72.3676L157.175 82.2976L224.974 228.16L246.356 218.23L178.557 72.3676Z" fill="#E6E6E6"/>
<path d="M200.743 147.559L198.343 142.282L199.724 141.646L202.116 146.906L236.752 223.669L235.372 224.309" fill="#3F3D56"/>
<path d="M227.803 143.173L225.404 137.896L226.785 137.259L229.177 142.52L263.813 219.282L262.433 219.923" fill="#3F3D56"/>
<path d="M188.649 84.0407L159.677 97.4954C157.833 94.6271 152.273 79.9282 153.521 75.5671L152.584 71.4082L172.588 62.118L175.266 65.4104C179.24 66.6294 186.978 80.4357 188.649 84.0407Z" fill="#E6E6E6"/>
<path d="M173.424 62.2959L152.781 71.8829C152.019 72.2367 151.208 72.1067 150.969 71.5923C150.934 71.5182 150.913 71.4387 150.906 71.3573L149.837 59.9647C149.792 59.4768 150.209 58.924 150.847 58.6277L164.537 52.2699C165.175 51.9737 165.867 52.0113 166.211 52.3608L174.232 60.5243C174.642 60.9419 174.42 61.6566 173.734 62.1207C173.636 62.1873 173.532 62.2459 173.424 62.2959Z" fill="#E6E6E6"/>
<path d="M189.615 151.553C189.392 151.554 189.169 151.528 188.952 151.475C188.646 151.412 188.358 151.279 188.111 151.087C187.864 150.896 187.664 150.65 187.527 150.369L174.906 123.217C174.384 122.093 175.085 120.656 176.469 120.013L194.95 111.43C196.334 110.787 197.885 111.179 198.408 112.303L211.028 139.455C211.155 139.741 211.214 140.052 211.201 140.364C211.188 140.677 211.104 140.982 210.955 141.257C210.631 141.879 210.106 142.373 209.465 142.66L190.985 151.242C190.557 151.444 190.089 151.55 189.615 151.553Z" fill="#3F3D56"/>
<path d="M192.143 155.663L170.761 165.594L204.302 237.753L225.683 227.823L192.143 155.663Z" fill="#E6E6E6"/>
<path d="M165.8 63.4863L159.53 66.3983C158.32 66.9602 156.688 66.0239 155.891 64.3113C155.095 62.5987 155.432 60.7477 156.642 60.1858L162.913 57.2738C164.123 56.7118 165.755 57.6482 166.551 59.3608C167.347 61.0734 167.01 62.9243 165.8 63.4863Z" fill="#3F3D56"/>
<path d="M172.972 141.293C168.973 143.154 168.907 151.489 170.161 154.19L172.433 159.079L186.918 152.352L184.645 147.463C183.389 144.764 176.974 139.438 172.972 141.293Z" fill="#3F3D56"/>
<path d="M106.546 124.655C105.134 125.595 103.688 123.357 105.128 122.458C106.54 121.517 107.986 123.756 106.546 124.655Z" fill="#E6E6E6"/>
<path d="M253.551 92.4884C252.139 93.429 250.693 91.1904 252.133 90.2916C253.545 89.3511 254.99 91.5897 253.551 92.4884Z" fill="#E6E6E6"/>
<path d="M153.354 118.075C151.942 119.016 150.496 116.777 151.936 115.878C153.348 114.938 154.793 117.176 153.354 118.075Z" fill="#E6E6E6"/>
<path d="M106.546 205.801C105.134 206.742 103.688 204.503 105.128 203.605C106.54 202.664 107.986 204.903 106.546 205.801Z" fill="#E6E6E6"/>
<path d="M178.586 22.6729C177.173 23.6135 175.728 21.3748 177.167 20.476C178.58 19.5355 180.025 21.7741 178.586 22.6729Z" fill="#E6E6E6"/>
<path d="M109.106 65.805C107.693 66.7455 106.248 64.5069 107.687 63.6081C109.1 62.6676 110.545 64.9062 109.106 65.805Z" fill="#E6E6E6"/>
<path d="M209.039 53.4398L208.141 53.2428L208.338 52.3444L207.739 52.2131L207.541 53.1116L206.643 52.9149L206.512 53.5137L207.41 53.7107L207.213 54.6088L207.812 54.74L208.01 53.8416L208.908 54.0386L209.039 53.4398Z" fill="#E6E6E6"/>
<path d="M62.7301 128.292L61.8316 128.095L62.0284 127.196L61.4294 127.065L61.2323 127.963L60.3334 127.767L60.2021 128.365L61.101 128.562L60.9043 129.461L61.5033 129.592L61.7004 128.694L62.5988 128.89L62.7301 128.292Z" fill="#E6E6E6"/>
<path d="M246.994 166.474C246.246 166.82 245.391 166.856 244.617 166.573C243.843 166.29 243.213 165.712 242.865 164.965L239.167 157.009C238.821 156.262 238.786 155.408 239.069 154.635C239.352 153.862 239.931 153.233 240.678 152.886C241.425 152.539 242.279 152.503 243.053 152.785C243.827 153.067 244.457 153.645 244.805 154.391L248.503 162.347C248.849 163.094 248.885 163.949 248.602 164.722C248.319 165.496 247.741 166.126 246.994 166.474Z" fill="#3F3D56"/>
<path d="M184.096 195.716C183.348 196.062 182.493 196.098 181.719 195.815C180.945 195.532 180.315 194.954 179.967 194.207L176.269 186.251C175.923 185.504 175.888 184.65 176.171 183.877C176.454 183.104 177.033 182.475 177.78 182.128C178.527 181.781 179.381 181.745 180.155 182.027C180.929 182.309 181.559 182.887 181.907 183.633L185.605 191.589C185.951 192.336 185.987 193.191 185.704 193.964C185.421 194.738 184.843 195.368 184.096 195.716Z" fill="#3F3D56"/>
<path d="M241.297 149.091L216.501 160.607C214.923 158.152 210.164 145.572 211.232 141.839L211.757 137.664L226.562 130.403L229.843 133.146C234.465 131.584 241.259 143.033 241.297 149.091Z" fill="#E6E6E6"/>
<path d="M229.785 148.293L223.515 151.205C222.305 151.767 220.464 150.381 219.411 148.117C218.359 145.853 218.487 143.553 219.697 142.991L225.967 140.079C227.177 139.517 229.019 140.902 230.071 143.167C231.123 145.431 230.995 147.731 229.785 148.293Z" fill="#3F3D56"/>
<path d="M176.607 163.277L174.208 158L175.589 157.363L177.981 162.624L212.617 239.386L211.237 240.027" fill="#3F3D56"/>
<path d="M200.328 167.807L175.532 179.323C171.874 177.435 166.284 165.082 170.263 160.555L170.788 156.38L185.593 149.119L188.874 151.863C192.275 152.906 198.898 164.722 200.328 167.807Z" fill="#E6E6E6"/>
<path d="M188.306 165.911L182.035 168.823C180.825 169.385 179.099 168.246 178.187 166.284C177.275 164.323 177.518 162.269 178.728 161.707L184.998 158.795C186.208 158.233 187.935 159.372 188.847 161.334C189.758 163.295 189.516 165.349 188.306 165.911Z" fill="#3F3D56"/>
<path d="M62.6386 112.525C83.4407 112.525 100.304 95.6692 100.304 74.8761C100.304 54.083 83.4407 37.2269 62.6386 37.2269C41.8365 37.2269 24.9731 54.083 24.9731 74.8761C24.9731 95.6692 41.8365 112.525 62.6386 112.525Z" fill="#FF6584"/>
<path opacity="0.3" d="M217.072 114.089L239.961 47.2679L214.828 113.289C214.703 113.446 214.618 113.63 214.579 113.826C214.54 114.023 214.549 114.225 214.604 114.417C214.659 114.61 214.759 114.786 214.896 114.932C215.033 115.078 215.203 115.189 215.391 115.256C215.58 115.323 215.781 115.344 215.98 115.318C216.178 115.292 216.367 115.218 216.531 115.104C216.696 114.99 216.831 114.839 216.925 114.662C217.019 114.486 217.069 114.289 217.072 114.089Z" fill="#F0F0F0"/>
<path d="M275.418 74.2595C270.938 75.748 265.97 77.2102 260.516 78.6461C232.305 86.0703 194.492 91.8614 154.042 94.9532C113.591 98.0449 75.3364 98.0673 46.3244 95.0169C32.1918 93.5308 21.0136 91.3934 13.1007 88.6637C4.72308 85.7741 0.321051 82.2919 0.0166995 78.3143C-0.575979 70.5653 14.7218 63.745 27.6595 59.3881L28.0099 60.4272C10.243 66.4104 0.690106 72.7332 1.11072 78.2308C1.64619 85.2328 18.1678 90.9534 46.4392 93.9263C75.3874 96.97 113.572 96.9467 153.958 93.86C194.344 90.773 232.088 84.9933 260.237 77.5856C287.727 70.3516 303.187 62.1863 302.651 55.1842C302.206 49.3706 290.742 44.3973 270.369 41.18L270.541 40.0969C285.343 42.4347 303.12 46.9353 303.745 55.1006C304.049 59.0782 300.228 63.1887 292.387 67.3179C287.918 69.6716 282.239 71.9938 275.418 74.2595Z" fill="#3F3D56"/>
<path d="M286.486 141.034C288.647 141.034 290.4 139.283 290.4 137.122C290.4 134.962 288.647 133.21 286.486 133.21C284.324 133.21 282.572 134.962 282.572 137.122C282.572 139.283 284.324 141.034 286.486 141.034Z" fill="#FF6584"/>
<path d="M311.353 247.036C313.514 247.036 315.266 245.285 315.266 243.125C315.266 240.964 313.514 239.213 311.353 239.213C309.191 239.213 307.439 240.964 307.439 243.125C307.439 245.285 309.191 247.036 311.353 247.036Z" fill="#F2F2F2"/>
<path d="M177.878 270.856C182.092 270.856 185.508 267.441 185.508 263.228C185.508 259.016 182.092 255.601 177.878 255.601C173.664 255.601 170.248 259.016 170.248 263.228C170.248 267.441 173.664 270.856 177.878 270.856Z" fill="#F2F2F2"/>
<path d="M119.734 169.911C121.895 169.911 123.648 168.159 123.648 165.999C123.648 163.838 121.895 162.087 119.734 162.087C117.573 162.087 115.82 163.838 115.82 165.999C115.82 168.159 117.573 169.911 119.734 169.911Z" fill="#3F3D56"/>
<path d="M251.308 175.002L268.193 179.371L278.55 199.705L261.041 200.391L251.308 175.002Z" fill="#E6E6E6"/>
<path d="M212.333 145.689L221.626 154.984L245.23 205.995L240.884 209.747L212.333 145.689Z" fill="#CCCCCC"/>
<path d="M192.125 154.115L192.854 167.235L215.133 218.838L220.829 218.105L192.125 154.115Z" fill="#CCCCCC"/>
<path d="M191.517 207.12L182.423 221.998L189.127 243.809L202.187 232.131L191.517 207.12Z" fill="#E6E6E6"/>
<path d="M271.851 216.262C267.13 216.262 261.954 216.084 256.326 215.727C227.212 213.879 189.501 207.454 150.14 197.637C110.778 187.819 74.4688 175.78 47.8999 163.74C34.9574 157.874 25.0242 152.322 18.3763 147.237C11.338 141.854 8.25931 137.162 9.22548 133.291C11.108 125.751 27.777 124.101 41.4291 124.045L41.4337 125.142C22.6858 125.219 11.6255 128.207 10.29 133.557C8.58893 140.37 22.4624 151.007 48.353 162.741C74.8634 174.755 111.106 186.77 150.406 196.573C189.705 206.375 227.346 212.789 256.395 214.633C284.765 216.434 302.012 213.559 303.713 206.745C305.125 201.088 295.815 192.755 277.497 183.279L278.001 182.306C291.311 189.191 306.761 199.065 304.777 207.011C303.811 210.881 298.888 213.578 290.145 215.024C285.16 215.849 279.039 216.262 271.851 216.262Z" fill="#3F3D56"/>
</g>
<defs>
<clipPath id="clip0_1_605">
<rect width="330" height="302" fill="white"/>
</clipPath>
</defs>
</svg>
