<svg width="514" height="382" viewBox="0 0 514 382" fill="none" xmlns="http://www.w3.org/2000/svg">
<g clip-path="url(#clip0_1_184)">
<path d="M192.345 64.2071C207.467 76.8495 224.326 66.265 240.484 65.4563C247.977 65.0813 255.455 66.8861 262.84 68.2325C269.85 69.5104 276.834 71.3691 283.242 74.539C290.227 77.873 296.169 83.0488 300.425 89.5083C301.271 90.8285 302.546 89.8536 302.537 88.2754C302.435 71.5164 295.182 72.8735 287.609 74.1095C280.41 75.2845 274.29 68.147 267.185 66.6109C259.751 65.1164 252.238 64.0467 244.682 63.407C236.49 62.5945 228.278 62.0432 220.046 61.7532C210.815 61.4279 201.582 61.4317 192.345 61.7644C190.776 61.8202 190.768 64.2632 192.345 64.2071Z" fill="#3F3D56"/>
<path d="M141.336 199.029C141.552 199.26 141.67 199.566 141.664 199.883C141.658 200.199 141.53 200.501 141.306 200.725C141.082 200.949 140.78 201.077 140.463 201.082C140.147 201.088 139.84 200.971 139.608 200.755C129.616 192.197 119.623 183.645 109.631 175.098C109.62 175.085 109.606 175.074 109.59 175.066C108.896 174.545 108.24 173.977 107.626 173.364C98.3264 172.281 88.1058 168.698 78.4232 167.143C69.8734 168.413 61.3481 169.928 52.7739 171.052C45.3034 172.089 37.772 172.627 30.2299 172.664C24.0926 172.631 25.8682 156.913 20.3015 154.015C14.5147 151.002 2.9097 160.751 1.42632 154.661C0.693415 151.543 0.216393 148.371 0 145.175V125.316C0.790589 116.669 14.5717 119.336 21.1165 113.303C30.9377 104.248 34.2724 83.0081 46.8403 82.7557C61.8176 82.4401 76.7996 83.0955 91.692 84.718C103.836 86.0533 116.608 87.348 127.839 92.5184C132.656 94.7413 137.196 107.598 140.513 111.775C144.299 116.654 146.441 122.606 146.634 128.776C147.229 141.877 141.263 153.863 137.994 166.231C135.158 176.938 133.561 189.917 141.336 199.029Z" fill="#F2F2F2"/>
<path d="M110.766 176.353C120.897 185.028 131.029 193.701 141.162 202.372C141.394 202.588 141.701 202.706 142.018 202.7C142.335 202.695 142.637 202.566 142.862 202.342C143.086 202.119 143.214 201.816 143.22 201.5C143.225 201.183 143.108 200.877 142.891 200.645C135.116 191.54 136.714 178.561 139.548 167.848C142.821 155.479 148.786 143.497 148.189 130.399C148 124.227 145.856 118.274 142.067 113.396C138.641 109.291 134.302 106.043 129.396 103.911C118.165 98.741 105.396 97.4407 93.2464 96.1087C78.356 94.4848 63.3757 93.8284 48.4001 94.1436C35.8285 94.4019 21.1225 94.6312 11.3019 103.688C2.35814 111.936 1.13656 124.907 1.22281 136.359C1.27277 142.994 1.40019 149.809 2.97902 156.284C4.46317 162.371 7.68165 168.3 13.4703 171.312C19.0381 174.209 25.6528 174.254 31.7843 174.284C39.3265 174.252 46.8579 173.712 54.3273 172.667C69.2768 170.714 84.0835 167.558 99.154 166.605C102.842 166.371 106.541 166.268 110.236 166.345C111.81 166.378 111.81 163.935 110.236 163.902C95.5825 163.596 81.0798 166.11 66.6625 168.399C52.7174 170.614 38.4619 172.701 24.3072 171.581C21.2042 171.436 18.1532 170.731 15.3017 169.5C12.5477 168.192 10.2175 166.137 8.57737 163.569C4.89237 157.836 4.19418 150.654 3.87587 143.966C3.51274 138.177 3.56652 132.37 4.0368 126.59C4.57988 120.985 5.88775 115.299 8.8753 110.46C15.6901 99.4227 29.4685 94.8296 41.228 96.8125C54.4702 99.0455 64.5995 109.62 84.8063 97.7365C91.1493 94.0062 99.4613 99.1973 106.74 100.294C112.179 101.044 117.544 102.257 122.776 103.92C127.81 105.455 132.501 107.946 136.591 111.256C140.871 114.872 143.851 119.788 145.076 125.253C147.883 137.839 142.32 150.401 138.644 162.179C135.367 172.678 132.572 185.008 136.984 195.602C138.013 198.064 139.423 200.348 141.162 202.372L142.891 200.645C132.761 191.97 122.629 183.297 112.495 174.626C111.307 173.608 109.569 175.328 110.766 176.353Z" fill="#C7C7C7"/>
<path d="M67.5995 119.52H30.7429C30.4047 119.52 30.0804 119.386 29.8412 119.147C29.6021 118.908 29.4678 118.584 29.4678 118.246C29.4678 117.908 29.6021 117.584 29.8412 117.345C30.0804 117.106 30.4047 116.972 30.7429 116.972H67.5995C67.9377 116.972 68.2621 117.106 68.5012 117.345C68.7404 117.584 68.8747 117.908 68.8747 118.246C68.8747 118.584 68.7404 118.908 68.5012 119.147C68.2621 119.386 67.9377 119.52 67.5995 119.52Z" fill="white"/>
<path d="M67.5995 146.686H30.7429C30.5755 146.686 30.4097 146.653 30.255 146.589C30.1002 146.525 29.9597 146.431 29.8412 146.312C29.7228 146.194 29.6289 146.054 29.5648 145.899C29.5007 145.745 29.4678 145.579 29.4678 145.412C29.4678 145.244 29.5007 145.079 29.5648 144.924C29.6289 144.77 29.7228 144.629 29.8412 144.511C29.9597 144.393 30.1002 144.299 30.255 144.235C30.4097 144.171 30.5755 144.138 30.7429 144.138H67.5995C67.9377 144.138 68.2621 144.272 68.5012 144.511C68.7404 144.75 68.8747 145.074 68.8747 145.412C68.8747 145.75 68.7404 146.074 68.5012 146.312C68.2621 146.551 67.9377 146.686 67.5995 146.686Z" fill="white"/>
<path d="M97.5329 133.112H30.7429C30.4047 133.112 30.0804 132.977 29.8412 132.738C29.6021 132.5 29.4678 132.176 29.4678 131.838C29.4678 131.5 29.6021 131.176 29.8412 130.937C30.0804 130.698 30.4047 130.564 30.7429 130.564H97.5329C97.8711 130.564 98.1955 130.698 98.4346 130.937C98.6738 131.176 98.8081 131.5 98.8081 131.838C98.8081 132.176 98.6738 132.5 98.4346 132.738C98.1955 132.977 97.8711 133.112 97.5329 133.112Z" fill="white"/>
<path d="M182.088 260.911C182.304 261.142 182.421 261.448 182.416 261.765C182.41 262.081 182.282 262.383 182.058 262.607C181.834 262.831 181.532 262.959 181.215 262.964C180.898 262.97 180.592 262.853 180.36 262.637C170.368 254.079 160.375 245.527 150.383 236.98C150.371 236.967 150.357 236.956 150.342 236.948C149.648 236.427 148.992 235.859 148.378 235.246C139.078 234.163 128.858 230.58 119.175 229.025C110.625 230.295 100.47 239.952 91.8955 241.076C84.4251 242.113 76.8937 242.652 69.3515 242.688C63.2143 242.655 64.9899 222.866 59.4231 219.968C53.6364 216.955 43.6614 222.633 42.1781 216.543C41.4201 213.441 37.6776 210.257 37.4331 207.057V187.198C38.2237 178.551 43.9548 169.985 50.4996 163.951C60.3209 154.897 75.0242 154.661 87.5921 154.409C102.569 154.093 117.551 154.748 132.444 156.371C144.588 157.706 157.36 159.001 168.591 164.171C173.497 166.305 177.836 169.553 181.265 173.657C185.05 178.536 187.193 184.488 187.386 190.658C187.981 203.759 182.014 215.745 178.746 228.113C175.91 238.82 174.312 251.799 182.088 260.911Z" fill="#F2F2F2"/>
<path d="M151.518 238.235C161.649 246.91 171.781 255.583 181.914 264.254C182.146 264.47 182.453 264.588 182.77 264.582C183.087 264.577 183.389 264.448 183.614 264.225C183.838 264.001 183.966 263.698 183.972 263.382C183.977 263.065 183.86 262.759 183.643 262.527C175.868 253.422 177.466 240.443 180.3 229.73C183.573 217.361 189.538 205.379 188.941 192.281C188.752 186.109 186.608 180.156 182.819 175.278C179.393 171.173 175.054 167.925 170.148 165.793C158.917 160.623 146.148 159.323 133.998 157.991C119.108 156.367 104.128 155.71 89.1521 156.026C76.5804 156.284 61.8744 156.513 52.0538 165.57C43.1101 173.818 41.8885 186.789 41.9748 198.241C42.0247 204.876 42.1521 211.691 43.731 218.166C45.2151 224.253 48.4336 230.182 54.2222 233.194C59.79 236.091 66.4048 236.136 72.5363 236.166C80.0784 236.134 87.6098 235.594 95.0792 234.549C110.029 232.596 124.835 229.44 139.906 228.487C143.594 228.253 147.293 228.15 150.988 228.227C152.562 228.26 152.562 225.817 150.988 225.784C136.334 225.478 121.832 227.992 107.414 230.281C93.4694 232.496 79.2139 234.583 65.0592 233.463C61.9562 233.318 58.9051 232.613 56.0537 231.382C53.2997 230.074 50.9694 228.019 49.3293 225.451C45.6443 219.718 44.9461 212.536 44.6278 205.848C44.2647 200.059 44.3185 194.252 44.7887 188.472C45.3318 182.867 46.6397 177.181 49.6273 172.342C56.442 161.305 71.9785 152.205 81.9799 158.695C93.4068 166.109 108.021 166.429 125.558 159.618C132.419 156.954 140.213 161.079 147.492 162.176C152.931 162.926 158.296 164.139 163.528 165.802C168.562 167.337 173.253 169.828 177.343 173.138C181.623 176.754 184.603 181.67 185.828 187.135C188.635 199.721 183.072 212.283 179.396 224.061C176.119 234.56 173.323 246.89 177.736 257.484C178.765 259.946 180.175 262.23 181.914 264.254L183.643 262.527C173.513 253.852 163.381 245.179 153.247 236.508C152.059 235.49 150.321 237.21 151.518 238.235Z" fill="#C7C7C7"/>
<path d="M108.351 181.402H71.4949C71.1567 181.402 70.8323 181.267 70.5932 181.029C70.3541 180.79 70.2197 180.466 70.2197 180.128C70.2197 179.79 70.3541 179.466 70.5932 179.227C70.8323 178.988 71.1567 178.854 71.4949 178.854H108.351C108.69 178.854 109.014 178.988 109.253 179.227C109.492 179.466 109.627 179.79 109.627 180.128C109.627 180.466 109.492 180.79 109.253 181.029C109.014 181.267 108.69 181.402 108.351 181.402Z" fill="white"/>
<path d="M108.351 208.568H71.4949C71.1567 208.568 70.8323 208.433 70.5932 208.194C70.3541 207.956 70.2197 207.632 70.2197 207.294C70.2197 206.956 70.3541 206.632 70.5932 206.393C70.8323 206.154 71.1567 206.02 71.4949 206.02H108.351C108.69 206.02 109.014 206.154 109.253 206.393C109.492 206.632 109.627 206.956 109.627 207.294C109.627 207.632 109.492 207.956 109.253 208.194C109.014 208.433 108.69 208.568 108.351 208.568Z" fill="white"/>
<path d="M138.285 194.994H71.4949C71.1567 194.994 70.8323 194.859 70.5932 194.62C70.3541 194.382 70.2197 194.057 70.2197 193.72C70.2197 193.382 70.3541 193.058 70.5932 192.819C70.8323 192.58 71.1567 192.446 71.4949 192.446H138.285C138.623 192.446 138.947 192.58 139.187 192.819C139.426 193.058 139.56 193.382 139.56 193.72C139.56 194.057 139.426 194.382 139.187 194.62C138.947 194.859 138.623 194.994 138.285 194.994Z" fill="white"/>
<path d="M382.988 306.082H279.989C279.044 306.082 278.137 305.707 277.469 305.039C276.801 304.372 276.425 303.466 276.425 302.522C276.425 301.578 276.801 300.672 277.469 300.005C278.137 299.337 279.044 298.962 279.989 298.962H382.988C383.934 298.962 384.84 299.337 385.508 300.005C386.177 300.672 386.552 301.578 386.552 302.522C386.552 303.466 386.177 304.372 385.508 305.039C384.84 305.707 383.934 306.082 382.988 306.082Z" fill="#F2F2F2"/>
<path d="M382.988 382H279.989C279.044 382 278.137 381.625 277.469 380.957C276.801 380.29 276.425 379.384 276.425 378.44C276.425 377.496 276.801 376.59 277.469 375.923C278.137 375.255 279.044 374.88 279.989 374.88H382.988C383.934 374.88 384.84 375.255 385.508 375.923C386.177 376.59 386.552 377.496 386.552 378.44C386.552 379.384 386.177 380.29 385.508 380.957C384.84 381.625 383.934 382 382.988 382Z" fill="#F2F2F2"/>
<path d="M466.64 344.066H279.989C279.52 344.067 279.057 343.975 278.624 343.797C278.191 343.618 277.797 343.356 277.466 343.025C277.134 342.695 276.871 342.302 276.692 341.87C276.512 341.437 276.42 340.974 276.42 340.506C276.42 340.038 276.512 339.575 276.692 339.142C276.871 338.71 277.134 338.317 277.466 337.987C277.797 337.656 278.191 337.394 278.624 337.215C279.057 337.037 279.52 336.945 279.989 336.946H466.64C467.585 336.947 468.49 337.323 469.157 337.99C469.824 338.658 470.199 339.563 470.199 340.506C470.199 341.449 469.824 342.354 469.157 343.021C468.49 343.689 467.585 344.065 466.64 344.066Z" fill="#F2F2F2"/>
<path d="M221.853 340.068L227.705 345.57L252.205 325.139L243.569 317.019L221.853 340.068Z" fill="#FFB6B6"/>
<path d="M232.507 363.859L229.256 348.712L233.197 344.529L231.075 342.756L224.488 337.272L222.877 335.924L207.724 349.539L212.116 353.664L216.799 350.261L214.899 356.284L226.532 367.224C227.09 367.749 227.8 368.081 228.561 368.173C229.321 368.265 230.091 368.112 230.758 367.737C231.425 367.361 231.955 366.782 232.269 366.085C232.584 365.387 232.667 364.608 232.507 363.859Z" fill="#2F2E41"/>
<path d="M193.328 361.344L201.272 362.55L209.814 331.83L198.09 330.05L193.328 361.344Z" fill="#FFB6B6"/>
<path d="M215.626 374.874L204.336 364.255L205.2 358.575L202.446 358.321L193.906 357.547L191.813 357.352L187.087 377.157L193.048 378.058L194.966 372.6L196.828 378.635L212.623 381.035C213.38 381.15 214.154 381.02 214.832 380.664C215.51 380.308 216.057 379.745 216.392 379.058C216.727 378.37 216.834 377.593 216.696 376.84C216.558 376.088 216.184 375.399 215.626 374.874Z" fill="#2F2E41"/>
<path d="M269.755 143.114L292.537 183.878C292.537 183.878 291.587 267.715 294.614 270.825C297.642 273.934 300.383 276.723 297.642 276.698C294.901 276.673 295.785 296.506 295.785 296.506L245.253 335.589L233.027 325.818L263.698 287.998L246.76 210.583C246.76 210.583 234.591 283.794 232.398 285.984C230.204 288.175 228.882 288.16 231.188 290.359C233.494 292.557 231.188 297.53 231.188 297.53L207.146 347.378L194.105 345.735C194.105 345.735 196.366 305.041 204.239 287.57V205.011C203.646 212.09 231.382 140.446 214.421 145.823C219.787 144.122 269.755 143.114 269.755 143.114Z" fill="#2F2E41"/>
<path d="M259.303 45.9684H240.469L237.802 56.6242L223.321 60.6247C223.321 60.6247 216.158 108.078 222.174 111.906C228.19 115.734 223.995 127.707 223.995 127.707C223.995 127.707 209.014 143.871 210.811 146.265C212.609 148.66 216.256 145.016 212.036 149.233C207.815 153.449 205.418 152.851 206.617 154.048C207.358 154.807 207.932 155.713 208.303 156.707L203.134 170.152C203.134 170.152 230.587 175.6 244.369 167.817C258.152 160.034 288.714 175.001 288.714 175.001C288.714 175.001 287.142 167.143 285.83 165.983C284.519 164.824 281.461 167.756 283.589 163.895C285.717 160.034 287.515 161.83 285.718 160.034C283.92 158.239 276.13 134.292 276.13 134.292C276.13 134.292 270.137 121.122 276.729 115.734C283.321 110.346 285.83 92.6735 285.83 92.6735L277.929 60.6247L264.744 57.6638L259.303 45.9684Z" fill="#C7C7C7"/>
<path d="M184.748 168.321L189.271 150.207L179.274 146.182L175.173 165.502C174.238 166.194 173.514 167.133 173.083 168.213C172.652 169.293 172.532 170.471 172.734 171.616C172.937 172.761 173.456 173.826 174.232 174.693C175.008 175.559 176.01 176.192 177.126 176.521C178.243 176.85 179.429 176.861 180.551 176.553C181.673 176.245 182.687 175.63 183.479 174.778C184.271 173.926 184.809 172.871 185.033 171.73C185.257 170.589 185.158 169.408 184.748 168.321Z" fill="#FFB6B6"/>
<path d="M228.688 59.4138L228.39 59.3625C225.614 58.8861 222.765 59.0928 220.087 59.9645C217.409 60.8362 214.985 62.3468 213.023 64.3654C207.903 69.6286 185.044 108.77 185.867 115.311C186.634 121.412 186.929 120.055 184.137 123.17C181.344 126.284 180.282 121.541 180.239 128.026C180.196 134.511 182.676 134.454 180.04 136.04C177.403 137.626 175.66 136.521 176.142 140.896C176.623 145.272 175.886 146.433 175.73 147.962C175.574 149.491 171.789 159.303 171.789 159.303C171.789 159.303 182.929 162.291 187.421 166.766C187.421 166.766 187.933 155.694 190.2 154.688C192.468 153.683 194.58 154.207 193.942 151.361C193.305 148.515 190.031 147.255 194.042 147.354C198.053 147.454 204.248 126.144 204.248 126.144L231.037 77.3156L228.688 59.4138Z" fill="#C7C7C7"/>
<path d="M289.144 177.294L289.949 158.642L300.678 157.615L299.125 177.304C299.826 178.232 300.254 179.337 300.36 180.495C300.467 181.653 300.248 182.817 299.728 183.857C299.209 184.898 298.409 185.773 297.419 186.384C296.429 186.995 295.288 187.318 294.124 187.317C292.96 187.315 291.82 186.99 290.831 186.377C289.843 185.764 289.045 184.887 288.527 183.846C288.01 182.804 287.794 181.639 287.902 180.482C288.011 179.324 288.442 178.22 289.144 177.294Z" fill="#FFB6B6"/>
<path d="M277.929 60.4084L278.229 60.4438C281.026 60.7734 283.7 61.7791 286.02 63.3737C288.34 64.9683 290.236 67.1039 291.544 69.5954C294.96 76.0934 305.768 120.104 303.122 126.144C300.654 131.777 300.756 130.392 302.549 134.17C304.343 137.948 306.708 133.7 304.908 139.931C303.108 146.162 300.746 145.405 302.824 147.673C304.902 149.94 306.887 149.375 305.183 153.434C303.479 157.493 303.856 158.815 303.572 160.326C303.287 161.837 304.131 172.318 304.131 172.318C304.131 172.318 292.6 172.027 287.022 175.045C287.022 175.045 289.675 164.283 287.786 162.676C285.897 161.07 283.723 160.974 285.142 158.425C286.562 155.877 290.059 155.596 286.184 154.555C282.31 153.513 282.419 131.324 282.419 131.324L270.593 76.9094L277.929 60.4084Z" fill="#C7C7C7"/>
<path d="M207.091 33.3961C206.942 39.8186 209.344 46.0375 212.796 51.4998C213.949 48.3281 215.563 45.3434 217.588 42.6421C216.618 48.6271 217.651 54.7644 220.525 60.1041C220.626 60.1765 220.731 60.2438 220.839 60.3056C223.653 61.9962 227.219 62.681 230.263 61.4599C223.975 54.6883 223.174 43.4688 228.446 35.8734C229.939 33.7181 231.869 31.812 232.794 29.3593C234.253 25.4459 232.85 21.1371 231.965 17.057C231.138 13.2596 230.993 8.74071 233.543 5.95771C233.27 5.56879 232.899 5.25921 232.468 5.06069C232.036 4.86217 231.56 4.78186 231.087 4.82797C229.514 5.04985 228.37 6.41515 227.641 7.82132C226.912 9.22745 226.431 10.786 225.415 12.0005C223.534 14.2738 220.331 14.8112 217.631 16.0093C211.093 18.9187 207.248 26.2496 207.091 33.3961Z" fill="#2F2E41"/>
<path d="M262.127 29.7239C261.754 28.4175 264.329 36.4034 263.086 36.5475C257.426 37.1962 249.657 40.5731 245.715 42.1485C245.537 42.1279 245.36 42.1073 245.187 42.0816C244.765 42.0352 244.352 41.9683 243.945 41.8911C234.766 40.1561 231.236 26.0698 231.236 25.9411C231.236 25.3079 232.757 7.91525 235.154 7.65783C235.783 7.5896 236.416 7.55523 237.049 7.55486H242.996C244.227 7.28994 245.474 7.10933 246.729 7.01428H246.74C258.712 6.103 268.152 13.3931 267.27 22.2639C267.265 22.2741 267.254 22.2845 267.249 22.2948C266.993 22.6757 266.769 23.0361 266.57 23.3811C266.377 23.7054 266.215 24.0143 266.074 24.3078C264.983 26.5731 267.788 29.4236 265.928 29.9556C263.454 30.6632 272.434 53.9214 262.643 53.9214C267.406 55.2743 263.158 33.3278 262.127 29.7239Z" fill="#2F2E41"/>
<path d="M251.44 43.3709C259.216 43.3709 265.52 37.0731 265.52 29.3043C265.52 21.5356 259.216 15.2378 251.44 15.2378C243.663 15.2378 237.359 21.5356 237.359 29.3043C237.359 37.0731 243.663 43.3709 251.44 43.3709Z" fill="#FFB6B6"/>
<path d="M267.27 23.031C267.035 23.1546 266.805 23.2678 266.57 23.3811C266.325 23.4995 266.08 23.618 265.834 23.726C261.119 25.8627 257.282 26.0995 254.953 23.031C254.891 21.4165 254.528 19.8277 253.883 18.346C253.996 20.0018 253.56 21.6488 252.64 23.031H247.951C243.121 26.2333 240.641 26.568 243.993 37.081C244.928 40.0105 248.644 57.0569 247.182 59.5848C246.759 59.5384 242.26 40.8673 241.853 40.7901C232.674 39.0551 226.841 23.9474 227.588 23.0928C227.584 20.6625 228.144 18.2642 229.222 16.0858C230.587 13.3259 232.714 11.0141 235.352 9.42378C236.925 8.66203 238.564 8.04677 240.25 7.5858C240.291 7.57549 240.328 7.56518 240.37 7.5549C240.887 7.41589 241.414 7.28718 241.941 7.17905C243.031 6.94924 244.133 6.78251 245.241 6.67967C245.32 6.67453 245.398 6.66937 245.471 6.66937C245.914 6.67041 246.348 6.78948 246.729 7.01432C246.735 7.01432 246.735 7.01945 246.74 7.01945C247.012 7.17849 247.25 7.39029 247.44 7.64242C247.773 8.06663 247.953 8.59093 247.951 9.13032H253.173C253.366 9.13032 253.559 9.13546 253.752 9.14574C257.237 9.26471 260.552 10.6785 263.048 13.1105C265.544 15.5425 267.043 18.8176 267.249 22.2948C267.265 22.5419 267.27 22.7839 267.27 23.031Z" fill="#2F2E41"/>
<path d="M236.484 18.5343C241.607 18.5343 245.76 14.3852 245.76 9.26715C245.76 4.14904 241.607 0 236.484 0C231.361 0 227.208 4.14904 227.208 9.26715C227.208 14.3852 231.361 18.5343 236.484 18.5343Z" fill="#2F2E41"/>
<path d="M470.274 367.927C470.653 367.944 471.028 367.845 471.349 367.642C471.669 367.44 471.919 367.143 472.066 366.794C472.212 366.444 472.247 366.058 472.167 365.688C472.086 365.318 471.893 364.981 471.615 364.724L471.488 364.221C471.505 364.181 471.522 364.14 471.538 364.1C471.92 363.199 472.56 362.432 473.377 361.893C474.194 361.354 475.152 361.069 476.131 361.073C477.11 361.076 478.066 361.369 478.879 361.913C479.692 362.458 480.326 363.231 480.701 364.134C482.199 367.74 484.107 371.351 484.577 375.164C484.784 376.849 484.696 378.557 484.319 380.212C487.839 372.542 489.666 364.206 489.678 355.768C489.679 353.651 489.561 351.535 489.325 349.431C489.13 347.706 488.86 345.993 488.514 344.293C486.628 335.067 482.578 326.419 476.696 319.06C473.85 317.508 471.548 315.122 470.1 312.223C469.576 311.181 469.205 310.069 469 308.921C469.321 308.963 470.211 304.077 469.969 303.777C470.416 303.099 471.217 302.762 471.706 302.1C474.136 298.807 477.485 299.382 479.234 303.856C482.968 305.739 483.005 308.862 480.713 311.866C479.255 313.777 479.055 316.362 477.775 318.408C477.907 318.576 478.044 318.739 478.176 318.908C480.581 321.998 482.678 325.317 484.436 328.816C484.008 324.896 484.519 320.93 485.925 317.246C487.349 313.812 490.02 310.92 492.372 307.951C492.994 307.154 493.839 306.558 494.799 306.241C495.76 305.923 496.793 305.896 497.769 306.165C498.744 306.434 499.618 306.985 500.28 307.75C500.942 308.515 501.362 309.459 501.487 310.462C501.492 310.506 501.497 310.549 501.501 310.593C501.152 310.79 500.81 310.999 500.475 311.22C500.055 311.501 499.73 311.901 499.541 312.37C499.353 312.839 499.31 313.353 499.42 313.846C499.529 314.339 499.785 314.788 500.154 315.133C500.523 315.478 500.987 315.704 501.487 315.781L501.538 315.789C501.414 317.047 501.194 318.293 500.88 319.518C503.897 331.174 497.384 335.42 488.083 335.61C487.878 335.716 487.677 335.821 487.472 335.921C489.238 340.921 490.346 346.129 490.768 351.414C491.006 354.532 490.992 357.664 490.725 360.78L490.741 360.67C491.415 357.205 493.265 354.079 495.979 351.819C500.01 348.511 505.705 347.293 510.054 344.634C510.516 344.337 511.053 344.179 511.602 344.178C512.151 344.176 512.69 344.332 513.153 344.626C513.617 344.92 513.987 345.341 514.219 345.838C514.451 346.335 514.536 346.888 514.464 347.432L514.446 347.548C513.798 347.812 513.167 348.116 512.556 348.458C512.207 348.655 511.865 348.864 511.53 349.085C511.11 349.366 510.784 349.766 510.596 350.235C510.408 350.704 510.365 351.218 510.475 351.711C510.584 352.204 510.84 352.653 511.209 352.998C511.578 353.343 512.042 353.569 512.542 353.646L512.593 353.654C512.63 353.659 512.662 353.665 512.698 353.67C511.591 356.312 510.036 358.744 508.103 360.859C506.216 371.035 498.114 372 489.446 369.037H489.441C488.49 373.165 487.112 377.184 485.33 381.027H470.642C470.59 380.864 470.542 380.696 470.495 380.533C471.854 380.618 473.219 380.537 474.559 380.291C473.469 378.955 472.38 377.609 471.29 376.273C471.266 376.248 471.243 376.222 471.221 376.194C470.669 375.511 470.111 374.832 469.558 374.149L469.558 374.148C469.528 372.052 469.769 369.961 470.274 367.927Z" fill="#FF6B6B"/>
<path d="M110.009 380.893C110.009 381.02 110.034 381.146 110.082 381.264C110.131 381.382 110.202 381.489 110.293 381.579C110.383 381.669 110.49 381.74 110.608 381.789C110.725 381.837 110.852 381.862 110.979 381.862H513.03C513.288 381.862 513.534 381.76 513.716 381.578C513.898 381.396 514 381.15 514 380.893C514 380.636 513.898 380.389 513.716 380.208C513.534 380.026 513.288 379.924 513.03 379.924H110.979C110.852 379.923 110.725 379.948 110.608 379.997C110.49 380.045 110.383 380.117 110.293 380.207C110.202 380.297 110.131 380.404 110.082 380.521C110.034 380.639 110.009 380.765 110.009 380.893Z" fill="#CCCCCC"/>
<path d="M292.07 172.976C293.204 174.171 291.486 175.724 290.163 174.7C279.131 166.156 268.1 157.617 257.068 149.084C257.055 149.071 257.04 149.06 257.023 149.052C256.262 148.536 255.538 147.968 254.855 147.352C244.588 146.271 233.305 142.694 222.615 141.142C213.176 142.41 203.765 143.922 194.299 145.044C186.043 146.08 177.731 146.617 169.411 146.653C162.635 146.621 155.338 146.58 149.192 143.686C142.804 140.678 139.249 134.76 137.612 128.679C136.804 125.576 136.277 122.406 136.037 119.208V99.3808C136.91 90.7473 139.573 82.1952 146.799 76.1713C157.641 67.1314 173.873 66.8957 187.748 66.6437C204.278 66.3283 220.811 66.9825 237.264 68.6028C250.671 69.9361 264.771 71.2286 277.17 76.3908C282.488 78.6101 287.499 81.6912 291.162 85.8616C295.283 90.5861 297.667 96.5742 297.919 102.836C298.576 115.916 291.989 127.883 288.381 140.231C285.25 150.921 283.486 163.88 292.07 172.976Z" fill="#48CAE4"/>
<path d="M210.231 88.5787H173.375C173.207 88.5787 173.042 88.5458 172.887 88.4817C172.732 88.4177 172.591 88.3239 172.473 88.2056C172.355 88.0873 172.261 87.9469 172.197 87.7923C172.133 87.6378 172.1 87.4721 172.1 87.3048C172.1 87.1375 172.133 86.9719 172.197 86.8173C172.261 86.6628 172.355 86.5223 172.473 86.404C172.591 86.2857 172.732 86.1919 172.887 86.1279C173.042 86.0639 173.207 86.0309 173.375 86.0309H210.231C210.57 86.0309 210.894 86.1651 211.133 86.404C211.372 86.6429 211.507 86.967 211.507 87.3048C211.507 87.6427 211.372 87.9667 211.133 88.2056C210.894 88.4445 210.57 88.5787 210.231 88.5787Z" fill="white"/>
<path d="M210.231 115.745H173.375C173.037 115.745 172.712 115.61 172.473 115.371C172.234 115.133 172.1 114.809 172.1 114.471C172.1 114.133 172.234 113.809 172.473 113.57C172.712 113.331 173.037 113.197 173.375 113.197H210.231C210.57 113.197 210.894 113.331 211.133 113.57C211.372 113.809 211.507 114.133 211.507 114.471C211.507 114.809 211.372 115.133 211.133 115.371C210.894 115.61 210.57 115.745 210.231 115.745Z" fill="white"/>
<path d="M240.165 102.171H173.375C173.037 102.171 172.712 102.036 172.473 101.797C172.234 101.559 172.1 101.235 172.1 100.897C172.1 100.559 172.234 100.235 172.473 99.9958C172.712 99.7569 173.037 99.6227 173.375 99.6227H240.165C240.503 99.6227 240.827 99.7569 241.066 99.9958C241.306 100.235 241.44 100.559 241.44 100.897C241.44 101.235 241.306 101.559 241.066 101.797C240.827 102.036 240.503 102.171 240.165 102.171Z" fill="white"/>
<path d="M300.425 89.5083C303.841 94.9538 305.774 101.222 305.182 107.682C304.672 113.257 302.383 118.499 299.88 123.44C297.287 128.559 294.384 133.531 292.263 138.877C289.935 144.703 289.075 151.012 289.758 157.248C290.177 161.297 290.995 165.291 291.765 169.284L294.117 181.474L296.16 180.286L262.354 151.089C261.169 150.065 259.433 151.786 260.625 152.816L294.431 182.013C294.625 182.195 294.872 182.309 295.136 182.339C295.4 182.369 295.667 182.313 295.897 182.18C296.126 182.046 296.306 181.842 296.411 181.598C296.515 181.354 296.537 181.082 296.475 180.825C295.093 173.663 293.461 166.497 292.448 159.273C291.867 155.629 291.785 151.924 292.206 148.258C292.62 145.464 293.355 142.728 294.396 140.102C298.451 129.517 306.045 120.258 307.509 108.75C308.426 101.54 306.363 94.3753 302.536 88.2754C301.703 86.9464 299.586 88.1711 300.425 89.5083Z" fill="#3F3D56"/>
<path d="M264.492 140.402L214.495 146.311L189.497 149.266C181.882 150.166 173.945 151.43 166.335 149.837C153.524 147.156 145.57 135.558 143.067 123.337C141.518 115.771 142.066 107.855 143.37 100.297C144.064 96.2675 144.981 92.2799 145.972 88.3139C146.855 84.7794 147.514 80.9734 149.04 77.6463C150.257 74.9411 152.069 72.5444 154.34 70.6342C156.612 68.7241 159.285 67.3494 162.161 66.6123C163.957 66.2445 165.777 66.0037 167.607 65.8914C169.664 65.6852 171.721 65.4955 173.781 65.3221C177.899 64.9755 182.023 64.6948 186.151 64.48C188.215 64.3726 190.279 64.2816 192.344 64.2071C193.913 64.1498 193.921 61.7068 192.344 61.7644C183.75 62.0787 175.173 62.6738 166.613 63.5498C163.125 63.9087 159.901 64.4275 156.753 66.0595C154.032 67.4808 151.643 69.4602 149.742 71.868C147.793 74.352 146.364 77.2016 145.538 80.2478C144.413 84.2954 143.392 88.3831 142.46 92.4793C140.582 100.736 139.233 109.246 139.86 117.735C140.787 130.289 146.804 143.684 158.48 149.661C165.375 153.191 173.244 153.349 180.799 152.675C189.225 151.923 197.628 150.748 206.028 149.755L258.041 143.607L264.492 142.845C266.035 142.663 266.054 140.218 264.492 140.402Z" fill="#3F3D56"/>
</g>
<defs>
<clipPath id="clip0_1_184">
<rect width="514" height="382" fill="white"/>
</clipPath>
</defs>
</svg>
